<?xml version="1.0" standalone="no"?>
<!DOCTYPE svg PUBLIC "-//W3C//DTD SVG 20010904//EN"
 "http://www.w3.org/TR/2001/REC-SVG-20010904/DTD/svg10.dtd">
<svg version="1.0" xmlns="http://www.w3.org/2000/svg"
 width="692.000000pt" height="630.000000pt" viewBox="0 0 692.000000 630.000000"
 preserveAspectRatio="xMidYMid meet">

<g transform="translate(0.000000,630.000000) scale(0.100000,-0.100000)"
fill="#000000" stroke="none">
<path d="M3600 5540 c-36 -4 -85 -13 -110 -19 -101 -26 -436 -122 -500 -143
-19 -6 -48 -14 -65 -19 -16 -4 -68 -18 -115 -32 -47 -13 -94 -27 -105 -30 -11
-2 -92 -26 -180 -52 -88 -26 -182 -53 -210 -60 -53 -14 -326 -93 -410 -120
-147 -46 -334 -166 -421 -269 -57 -68 -110 -159 -136 -235 -18 -53 -22 -87
-22 -173 1 -108 7 -135 24 -108 7 10 10 -3 10 -41 0 -70 16 -107 129 -296 301
-504 340 -562 448 -663 94 -88 180 -146 316 -210 210 -100 377 -139 625 -147
273 -9 343 5 737 137 214 71 603 201 1195 397 229 76 351 130 375 166 9 14 22
24 29 21 30 -11 73 45 106 136 18 50 36 93 41 96 16 10 49 -16 42 -33 -13 -34
17 -1 50 55 47 80 62 142 61 247 -1 135 -49 275 -135 391 -71 97 -515 608
-571 659 -183 164 -416 273 -708 330 -97 19 -398 28 -500 15z m835 -285 c39
-24 90 -56 115 -71 44 -27 369 -228 460 -285 75 -47 90 -59 90 -74 0 -9 -9
-15 -21 -15 -12 0 -23 -8 -26 -20 -7 -26 -33 -26 -33 -1 0 14 -31 39 -104 85
l-104 65 -148 -46 c-82 -24 -164 -49 -181 -54 -24 -7 -33 -16 -33 -31 0 -47
24 -188 33 -188 4 0 5 -5 1 -11 -4 -8 -9 -7 -15 2 -8 11 -12 11 -23 -3 -7 -10
-18 -18 -23 -18 -10 0 -36 78 -48 140 -3 19 -31 149 -61 288 -31 140 -54 255
-52 256 46 38 92 32 173 -19z m-502 -81 c39 -9 75 -19 79 -23 4 -4 -71 -8
-167 -9 l-175 -3 0 24 c0 13 3 27 8 31 10 12 170 -1 255 -20z m-93 -102 c74
-37 120 -98 120 -159 0 -27 -7 -55 -18 -71 -25 -37 -26 -72 -2 -72 29 0 356
-166 364 -185 10 -27 8 -41 -5 -28 -14 14 -49 5 -49 -13 0 -23 -20 -26 -28 -3
-13 33 -308 182 -331 167 -24 -15 -91 -2 -91 17 0 8 -7 15 -15 15 -25 0 -95
-24 -95 -33 0 -12 28 -52 107 -157 40 -52 70 -96 68 -99 -3 -2 0 -10 7 -18 15
-18 2 -29 -16 -14 -18 15 -36 7 -36 -15 0 -20 -35 -14 -35 6 -1 22 -15 41 -26
35 -5 -3 -6 0 -3 8 3 8 -1 21 -8 28 -7 8 -26 31 -41 52 -16 21 -33 34 -39 31
-7 -4 -8 -2 -4 5 9 13 -18 43 -29 33 -5 -4 -5 -1 -1 6 4 7 1 15 -8 18 -9 3
-16 15 -16 26 0 10 -4 16 -10 13 -5 -3 -10 0 -10 8 0 8 -19 34 -42 58 -24 23
-36 39 -29 34 22 -13 -27 52 -52 70 -12 8 -17 15 -12 15 6 1 -1 10 -14 20 -13
11 -20 20 -16 20 4 0 -10 23 -30 50 -20 28 -35 56 -32 64 3 7 56 27 119 45 62
18 124 36 138 41 14 5 57 9 95 9 57 1 80 -4 125 -27z m-563 -269 c61 -82 155
-209 210 -283 55 -74 103 -148 107 -164 6 -25 5 -28 -8 -17 -18 15 -56 -1 -56
-24 0 -22 -21 -18 -27 4 -4 18 -26 29 -208 111 -38 17 -78 35 -88 41 -10 5
-93 44 -185 85 -91 42 -189 88 -217 102 -27 15 -59 30 -69 35 -19 8 -19 7 -1
-13 10 -11 26 -35 34 -53 16 -32 43 -73 204 -299 42 -60 77 -118 77 -129 0
-10 5 -19 10 -19 6 0 10 -4 10 -10 0 -5 -7 -10 -15 -10 -8 0 -15 5 -15 11 0 6
-6 9 -12 7 -7 -3 -13 -11 -13 -19 0 -23 -30 -16 -33 8 -2 12 -14 33 -28 48
-13 14 -24 30 -24 34 0 5 -10 16 -22 25 -13 9 -17 14 -10 10 11 -5 11 -2 0 15
-7 12 -18 19 -24 17 -7 -3 -10 4 -7 17 4 18 3 19 -6 7 -9 -12 -11 -11 -11 8 0
13 -4 21 -9 18 -5 -3 -8 2 -7 11 0 10 -6 18 -14 18 -8 0 -14 8 -14 17 1 10 -7
20 -17 23 -11 4 -19 14 -19 23 -1 9 -8 28 -16 42 -8 14 -13 17 -10 7 3 -11 2
-15 -4 -12 -6 3 -10 15 -10 26 0 11 -4 18 -9 15 -4 -3 -17 11 -27 32 -10 20
-27 43 -37 50 -9 7 -15 18 -11 23 3 5 -11 32 -31 60 -42 58 -42 78 -1 92 39
13 39 13 426 -166 179 -82 344 -158 367 -168 l43 -18 -13 22 c-6 12 -15 24
-18 27 -4 3 -57 73 -118 155 -61 83 -123 165 -138 184 -55 66 -66 90 -53 106
31 38 55 19 167 -132z m-895 -95 c9 -7 76 -101 149 -208 72 -107 156 -229 185
-271 54 -78 89 -149 74 -149 -5 0 -11 4 -15 10 -8 13 -35 1 -35 -16 0 -8 -4
-14 -10 -14 -5 0 -13 -1 -16 -2 -3 -2 -12 15 -19 36 -8 21 -18 42 -22 45 -5 3
-27 33 -48 66 -22 33 -43 62 -47 63 -5 2 -8 10 -8 17 0 7 -3 15 -7 17 -5 2
-29 35 -55 73 -26 39 -68 99 -93 135 -122 175 -125 182 -81 200 29 12 30 12
48 -2z m-237 -106 c-4 -15 -13 -63 -20 -107 -8 -44 -19 -107 -24 -140 -8 -45
-8 -62 2 -71 6 -7 106 -60 220 -119 162 -84 211 -113 218 -133 11 -27 3 -44
-11 -23 -10 17 -40 7 -40 -14 0 -22 -21 -18 -27 5 -4 13 -42 39 -117 76 -61
31 -135 70 -164 86 -55 30 -100 34 -47 4 17 -9 21 -14 10 -11 -52 18 -55 17
-66 -11 -18 -45 -59 -272 -53 -289 4 -8 1 -15 -5 -15 -6 0 -11 5 -11 10 0 6
-7 10 -15 10 -8 0 -15 -9 -15 -20 0 -32 -27 -23 -32 11 -3 16 9 111 26 209 22
133 27 182 18 192 -6 7 -99 58 -206 113 -108 55 -196 105 -196 111 0 7 14 17
30 23 28 9 45 3 210 -81 99 -51 182 -90 185 -87 3 3 10 32 15 65 6 32 15 77
20 99 5 22 12 61 15 86 4 35 11 49 28 56 34 16 60 -2 52 -35z m2240 -353 c24
-6 51 -20 61 -30 16 -17 16 -19 0 -25 -10 -4 -28 -2 -41 4 -15 7 -26 8 -30 2
-9 -15 -62 -12 -79 5 -22 22 -66 20 -66 -3 0 -20 -74 -61 -87 -49 -16 16 -33
-19 -33 -67 0 -72 39 -146 119 -227 68 -68 131 -106 214 -129 39 -10 58 -10
109 0 73 16 116 50 127 100 5 26 12 36 30 38 22 4 23 2 17 -45 -3 -26 -6 -57
-6 -68 -1 -11 -9 -29 -19 -40 -10 -11 -33 -48 -51 -83 -33 -62 -84 -113 -127
-126 -28 -9 -29 2 -7 64 20 58 35 74 88 94 33 13 43 21 39 34 -4 17 -8 17 -70
2 -37 -10 -70 -24 -75 -33 -11 -20 -29 -21 -99 -5 -35 8 -53 18 -57 30 -2 10
-28 32 -58 48 -49 29 -184 161 -184 181 0 5 -5 9 -11 9 -7 0 -5 -10 6 -26 9
-14 14 -28 12 -31 -3 -2 -17 16 -32 42 -40 67 -46 177 -15 234 48 84 201 131
325 100z m-513 -254 c38 -50 94 -126 126 -170 32 -44 81 -111 109 -150 48 -66
85 -148 52 -117 -20 18 -36 15 -42 -10 -5 -18 -8 -19 -22 -8 -10 9 -12 16 -5
20 6 3 -36 28 -92 55 -453 214 -445 210 -511 248 -52 30 -77 28 -39 -3 12 -10
22 -23 22 -29 0 -12 43 -75 168 -249 72 -101 101 -157 88 -169 -3 -4 -6 0 -6
7 0 9 -5 8 -13 -5 -15 -20 -42 -12 -33 11 4 11 -58 105 -199 299 -20 28 -55
75 -76 105 -22 30 -49 66 -60 80 -18 23 -18 26 -2 37 28 21 52 15 183 -46 214
-102 342 -162 420 -197 41 -19 87 -41 102 -49 43 -24 42 -18 -4 38 -24 28 -69
86 -98 127 -30 41 -63 84 -72 94 -10 11 -18 23 -18 27 0 4 -6 14 -13 21 -7 7
-30 35 -52 61 -31 39 -36 50 -24 58 26 17 43 4 111 -86z m-710 -118 c45 -46
358 -512 358 -534 0 -1 -7 -3 -15 -3 -8 0 -15 5 -15 10 0 6 -4 10 -9 10 -5 0
-7 -9 -4 -20 4 -14 0 -20 -11 -20 -10 0 -16 8 -16 21 0 27 -14 52 -67 121 -23
31 -43 59 -43 63 0 4 -6 12 -12 19 -7 8 -40 53 -73 101 -33 48 -82 116 -108
152 -38 52 -45 68 -36 79 14 18 34 18 51 1z m239 -74 c13 -16 12 -17 -3 -4
-17 13 -22 21 -14 21 2 0 10 -8 17 -17z m730 -346 c-6 -15 -15 -27 -21 -27
-13 0 -13 1 7 46 18 43 31 26 14 -19z m-651 -204 c-10 -16 -11 -15 -6 7 3 14
6 32 7 40 1 8 4 5 6 -7 2 -12 -1 -30 -7 -40z"/>
<path d="M4356 5188 c4 -18 19 -92 35 -164 16 -72 29 -134 29 -138 0 -12 38
-5 150 30 123 38 170 56 170 64 0 5 -110 74 -204 129 -23 12 -48 29 -56 35
-18 15 -118 76 -125 76 -2 0 -2 -15 1 -32z"/>
<path d="M3552 5021 c-29 -9 -50 -20 -46 -24 4 -3 1 -13 -6 -22 -10 -12 -3
-28 45 -94 31 -43 69 -90 83 -104 l27 -25 84 28 c45 16 94 39 107 51 29 27 32
75 8 124 -23 50 -56 67 -109 59 -33 -5 -51 -2 -70 10 -30 20 -54 19 -123 -3z"/>
<path d="M959 4120 c-8 -39 -8 -399 0 -467 18 -167 37 -207 369 -801 44 -78
103 -173 131 -211 62 -84 226 -242 307 -296 32 -22 64 -45 71 -51 29 -27 327
-165 430 -199 61 -20 114 -43 117 -51 3 -8 16 -14 29 -14 13 0 26 -2 29 -5 9
-10 -4 -55 -17 -55 -6 0 -17 -10 -23 -23 -9 -18 -11 -19 -11 -4 -1 10 4 28 10
39 8 14 8 23 0 31 -6 6 -11 8 -11 4 0 -3 -11 -76 -25 -161 -14 -85 -25 -157
-25 -160 0 -4 9 -6 21 -6 11 0 18 -4 15 -8 -3 -5 -20 -7 -38 -4 -27 4 -31 2
-20 -9 6 -7 12 -22 12 -33 0 -32 49 -94 79 -101 15 -3 56 3 95 15 63 20 69 24
84 61 19 50 24 46 109 -95 88 -147 251 -423 273 -461 60 -107 179 -308 207
-352 18 -29 33 -54 33 -57 0 -3 13 -25 30 -49 16 -25 30 -48 30 -51 0 -13 74
-87 106 -107 77 -47 181 -61 271 -34 75 22 189 89 122 72 -17 -5 -18 -3 -8 10
10 12 10 16 -2 24 -12 7 -11 9 3 9 9 0 21 -7 26 -16 5 -9 14 -14 21 -10 8 5 7
12 -4 23 -15 14 -14 18 3 37 11 11 22 28 26 36 3 8 4 2 0 -14 -5 -26 -3 -28
10 -17 9 8 16 24 16 37 0 13 6 24 13 24 6 0 27 22 44 48 47 69 48 142 3 235
-18 37 -36 67 -41 67 -5 0 -9 6 -9 14 0 8 -6 16 -12 19 -7 2 -26 31 -43 63
-16 32 -37 65 -45 74 -8 9 -24 33 -35 55 -11 22 -24 43 -30 47 -5 4 -6 8 -1 8
5 0 -1 8 -12 19 -12 10 -22 23 -22 29 0 6 -6 17 -12 24 -15 16 -27 35 -69 106
-17 28 -35 52 -41 52 -5 0 -7 3 -4 8 2 4 -9 25 -25 47 -16 22 -32 48 -35 58
-4 9 -10 17 -15 17 -5 0 -9 7 -9 15 0 8 -9 23 -21 34 -12 11 -18 24 -14 30 3
6 1 11 -4 11 -6 0 -11 7 -11 15 0 9 -7 18 -15 21 -8 3 -17 15 -21 26 -3 11
-17 36 -30 55 -13 20 -24 41 -24 47 0 6 5 3 10 -6 9 -15 14 -15 36 -3 35 18
64 51 64 72 0 10 7 40 15 67 18 59 19 69 4 60 -17 -10 6 28 29 49 20 18 74 39
312 122 69 24 217 76 330 115 113 39 270 94 350 122 126 43 242 84 520 184
154 55 298 144 404 250 63 64 156 194 156 219 0 8 5 15 11 15 5 0 9 8 8 18 -2
19 4 36 50 133 17 36 31 70 31 76 0 5 9 28 20 51 11 22 20 47 20 55 0 8 9 26
20 40 11 14 20 31 20 39 -1 10 -4 9 -13 -2 -22 -28 -144 -127 -201 -164 -113
-73 -241 -128 -488 -211 -268 -91 -700 -238 -1138 -387 -387 -131 -415 -139
-592 -168 -175 -29 -463 -29 -648 -1 -471 73 -853 267 -1125 572 -64 71 -147
200 -275 424 -9 17 -61 107 -115 200 -54 94 -116 204 -137 245 -21 41 -38 72
-39 70z m2132 -2160 c3 -30 3 -59 -1 -63 -4 -5 -24 15 -45 43 -43 59 -41 83 7
78 32 -3 33 -5 39 -58z m-310 -1 c58 -29 63 -34 95 -105 19 -41 38 -74 42 -74
15 0 74 -64 93 -102 24 -47 9 -51 -47 -13 -39 26 -67 34 -46 13 7 -7 12 -24
12 -38 0 -15 8 -30 20 -38 12 -7 18 -17 15 -22 -3 -6 -1 -10 4 -10 6 0 11 -6
11 -14 0 -8 7 -16 15 -20 8 -3 15 -12 15 -21 0 -8 4 -15 9 -15 5 0 12 -13 16
-30 4 -16 12 -33 19 -37 20 -13 50 -67 48 -85 -2 -10 1 -18 7 -18 6 0 14 -15
19 -32 4 -18 14 -33 22 -33 7 0 15 -6 18 -14 3 -9 -2 -11 -18 -6 -19 6 -21 4
-15 -16 8 -24 30 -74 44 -99 24 -45 28 -59 24 -83 -3 -15 2 -35 11 -49 24 -34
19 -47 -7 -17 -12 15 -33 29 -47 33 -14 3 -19 3 -12 0 6 -3 12 -14 12 -24 0
-9 6 -22 13 -28 7 -6 24 -33 37 -61 14 -28 28 -51 33 -51 4 0 7 -7 7 -15 0 -8
5 -15 10 -15 6 0 10 -4 10 -9 0 -5 13 -31 30 -58 33 -53 49 -113 31 -113 -6 0
-12 7 -12 15 -1 8 -2 18 -3 23 -1 8 -45 72 -62 89 -6 6 -17 26 -25 45 -15 36
-17 40 -54 82 -14 16 -25 35 -25 42 0 7 -10 25 -23 41 -26 31 -67 112 -67 131
0 7 -7 15 -15 18 -8 4 -15 15 -15 25 0 10 -6 19 -13 19 -7 0 -23 18 -37 39
-13 22 -28 38 -32 35 -4 -3 -5 1 -2 9 3 8 -2 17 -10 20 -9 4 -16 18 -16 32 0
14 -4 25 -10 25 -5 0 -10 6 -10 13 0 8 -11 24 -25 37 -14 13 -25 29 -25 37 0
7 -9 18 -20 25 -11 7 -20 21 -20 30 0 10 -4 18 -8 18 -5 0 -15 18 -22 39 -9
29 -17 38 -29 34 -9 -4 -13 -3 -9 2 4 4 3 16 -3 27 -6 10 -7 28 -4 39 7 20 9
19 41 -12 19 -18 34 -38 34 -45 0 -7 14 -24 32 -39 27 -23 30 -30 20 -46 -16
-25 -15 -49 1 -49 7 0 17 8 23 18 12 20 6 112 -7 112 -12 0 -41 59 -36 73 4
12 -28 47 -43 47 -5 0 -10 7 -10 16 0 11 6 13 19 9 27 -8 34 9 12 29 -29 26
-74 36 -96 20 -34 -25 -53 -17 -75 30 -24 53 -25 76 -6 76 15 0 66 -55 66 -71
0 -5 7 -9 15 -9 8 0 15 2 15 4 0 2 -20 35 -45 73 -25 37 -45 72 -45 77 0 17
33 46 52 46 10 0 46 -14 79 -31z m458 -18 c27 -37 26 -49 -4 -85 -21 -26 -26
-28 -41 -16 -15 13 -16 11 -12 -28 3 -36 1 -40 -8 -27 -18 24 -27 106 -15 137
9 24 35 47 53 48 4 0 16 -13 27 -29z m28 23 c-3 -3 -12 -4 -19 -1 -8 3 -5 6 6
6 11 1 17 -2 13 -5z m-857 -113 c0 -22 -4 -42 -9 -45 -12 -8 -22 34 -14 62 9
36 23 25 23 -17z m891 -182 c197 -323 422 -705 423 -717 3 -35 -26 -19 -59 35
-21 32 -111 175 -202 318 -233 366 -235 369 -241 421 -7 68 11 55 79 -57z
m-60 -646 c7 -21 19 -43 27 -49 8 -6 12 -16 8 -22 -4 -7 -3 -12 2 -12 5 0 7
-13 4 -30 -3 -19 0 -30 8 -30 7 0 10 7 6 15 -3 8 -1 15 5 15 12 0 29 -43 29
-73 0 -20 -2 -20 -29 8 -17 18 -31 44 -34 65 -5 39 -25 88 -44 108 -15 16 -17
42 -4 42 5 0 15 -17 22 -37z m93 -18 c78 -109 119 -186 107 -198 -16 -16 -30
1 -96 112 -81 138 -89 195 -11 86z m366 -160 c0 -18 -39 -35 -81 -35 -36 0
-37 10 -1 32 35 22 82 24 82 3z m190 -47 c13 -25 13 -31 0 -55 -34 -60 -100
-61 -100 -2 0 81 66 118 100 57z m-523 -18 c-4 -14 0 -20 12 -20 23 0 31 -9
24 -26 -9 -24 -31 -16 -47 18 -20 39 -20 48 0 48 11 0 15 -6 11 -20z m101 -32
c-6 -18 -28 -21 -28 -4 0 9 7 16 16 16 9 0 14 -5 12 -12z m202 -28 c0 -52 -25
-99 -57 -105 -15 -4 -34 -9 -41 -11 -8 -2 -32 -1 -54 2 -40 7 -40 7 -35 45 3
21 15 52 27 69 20 28 25 30 91 30 l69 0 0 -30z"/>
<path d="M2690 1935 c0 -3 10 -22 23 -43 13 -20 26 -45 30 -54 6 -18 32 -24
41 -10 8 14 -58 112 -76 112 -10 0 -18 -2 -18 -5z"/>
<path d="M2890 1671 c0 -6 4 -13 10 -16 6 -3 7 1 4 9 -7 18 -14 21 -14 7z"/>
<path d="M2932 1433 c-26 -29 -27 -39 -6 -47 22 -9 24 -8 24 9 0 8 7 15 15 15
18 0 20 24 2 38 -9 8 -18 4 -35 -15z"/>
<path d="M3031 1358 c-1 -24 -5 -28 -33 -28 l-31 0 23 -25 c13 -13 31 -27 42
-31 10 -3 18 -10 18 -16 0 -5 -7 -7 -16 -4 -11 4 -14 1 -12 -12 2 -12 16 -18
48 -22 42 -5 45 -4 45 18 0 19 -4 22 -27 17 -30 -7 -27 -12 -47 85 -6 32 -9
37 -10 18z"/>
<path d="M3124 1151 c9 -16 23 -31 33 -35 17 -6 17 -5 1 8 -10 7 -18 23 -18
35 0 12 -6 21 -15 21 -14 0 -14 -3 -1 -29z"/>
<path d="M3173 1066 c7 -14 13 -23 15 -21 7 6 -9 45 -18 45 -4 0 -3 -11 3 -24z"/>
<path d="M3300 860 c0 -5 5 -10 10 -10 6 0 10 5 10 10 0 6 -4 10 -10 10 -5 0
-10 -4 -10 -10z"/>
</g>
</svg>
